<mxfile host="app.diagrams.net" agent="Mozilla/5.0 (Windows NT 10.0; Win64; x64) AppleWebKit/537.36 (KHTML, like Gecko) Chrome/128.0.0.0 Safari/537.36 Edg/128.0.0.0" version="24.7.14">
  <diagram name="Page-1" id="NtOnQYRcyRwZwQe1axjF">
    <mxGraphModel dx="612" dy="565" grid="1" gridSize="10" guides="1" tooltips="1" connect="1" arrows="1" fold="1" page="1" pageScale="1" pageWidth="1654" pageHeight="2336" math="0" shadow="0">
      <root>
        <mxCell id="0" />
        <mxCell id="1" parent="0" />
        <mxCell id="r6UHJdUmTr2fi7uBkxMy-1" style="rounded=0;orthogonalLoop=1;jettySize=auto;html=1;exitX=0;exitY=0.5;exitDx=0;exitDy=0;" edge="1" parent="1" source="r6UHJdUmTr2fi7uBkxMy-6" target="r6UHJdUmTr2fi7uBkxMy-5">
          <mxGeometry relative="1" as="geometry" />
        </mxCell>
        <mxCell id="r6UHJdUmTr2fi7uBkxMy-2" value="extend" style="edgeLabel;html=1;align=center;verticalAlign=middle;resizable=0;points=[];" vertex="1" connectable="0" parent="r6UHJdUmTr2fi7uBkxMy-1">
          <mxGeometry x="-0.1632" y="-3" relative="1" as="geometry">
            <mxPoint as="offset" />
          </mxGeometry>
        </mxCell>
        <mxCell id="r6UHJdUmTr2fi7uBkxMy-4" style="rounded=0;orthogonalLoop=1;jettySize=auto;html=1;exitX=0;exitY=0.5;exitDx=0;exitDy=0;" edge="1" parent="1" source="r6UHJdUmTr2fi7uBkxMy-8" target="r6UHJdUmTr2fi7uBkxMy-5">
          <mxGeometry relative="1" as="geometry" />
        </mxCell>
        <mxCell id="r6UHJdUmTr2fi7uBkxMy-5" value="Thống kê" style="ellipse;whiteSpace=wrap;html=1;" vertex="1" parent="1">
          <mxGeometry x="160" y="190" width="140" height="70" as="geometry" />
        </mxCell>
        <mxCell id="r6UHJdUmTr2fi7uBkxMy-13" style="rounded=0;orthogonalLoop=1;jettySize=auto;html=1;entryX=0;entryY=0;entryDx=0;entryDy=0;" edge="1" parent="1" source="r6UHJdUmTr2fi7uBkxMy-6" target="r6UHJdUmTr2fi7uBkxMy-11">
          <mxGeometry relative="1" as="geometry" />
        </mxCell>
        <mxCell id="r6UHJdUmTr2fi7uBkxMy-6" value="Thống kê sách mượn" style="ellipse;whiteSpace=wrap;html=1;" vertex="1" parent="1">
          <mxGeometry x="430" y="100" width="140" height="70" as="geometry" />
        </mxCell>
        <mxCell id="r6UHJdUmTr2fi7uBkxMy-14" style="rounded=0;orthogonalLoop=1;jettySize=auto;html=1;entryX=0;entryY=1;entryDx=0;entryDy=0;" edge="1" parent="1" source="r6UHJdUmTr2fi7uBkxMy-8" target="r6UHJdUmTr2fi7uBkxMy-11">
          <mxGeometry relative="1" as="geometry" />
        </mxCell>
        <mxCell id="r6UHJdUmTr2fi7uBkxMy-8" value="Thống kê sách trễ hạn" style="ellipse;whiteSpace=wrap;html=1;" vertex="1" parent="1">
          <mxGeometry x="430" y="290" width="140" height="70" as="geometry" />
        </mxCell>
        <mxCell id="r6UHJdUmTr2fi7uBkxMy-9" value="included" style="edgeLabel;html=1;align=center;verticalAlign=middle;resizable=0;points=[];" vertex="1" connectable="0" parent="1">
          <mxGeometry x="639.9982436161063" y="169.99903354283293" as="geometry">
            <mxPoint x="-14" y="-6" as="offset" />
          </mxGeometry>
        </mxCell>
        <mxCell id="r6UHJdUmTr2fi7uBkxMy-10" value="extend" style="edgeLabel;html=1;align=center;verticalAlign=middle;resizable=0;points=[];" vertex="1" connectable="0" parent="1">
          <mxGeometry x="369.99824361610627" y="289.99903354283293" as="geometry" />
        </mxCell>
        <mxCell id="r6UHJdUmTr2fi7uBkxMy-11" value="Tìm kiếm" style="ellipse;whiteSpace=wrap;html=1;" vertex="1" parent="1">
          <mxGeometry x="690" y="180" width="150" height="80" as="geometry" />
        </mxCell>
        <mxCell id="r6UHJdUmTr2fi7uBkxMy-15" value="included" style="edgeLabel;html=1;align=center;verticalAlign=middle;resizable=0;points=[];" vertex="1" connectable="0" parent="1">
          <mxGeometry x="639.9982436161063" y="289.99903354283293" as="geometry">
            <mxPoint x="-14" y="-6" as="offset" />
          </mxGeometry>
        </mxCell>
      </root>
    </mxGraphModel>
  </diagram>
</mxfile>
